<svg xmlns="http://www.w3.org/2000/svg" width="22" height="14" viewBox="0 0 22 14">
  <metadata><?xpacket begin="﻿" id="W5M0MpCehiHzreSzNTczkc9d"?>
<x:xmpmeta xmlns:x="adobe:ns:meta/" x:xmptk="Adobe XMP Core 5.6-c138 79.159824, 2016/09/14-01:09:01        ">
   <rdf:RDF xmlns:rdf="http://www.w3.org/1999/02/22-rdf-syntax-ns#">
      <rdf:Description rdf:about=""/>
   </rdf:RDF>
</x:xmpmeta>
                                                                                                    
                                                                                                    
                                                                                                    
                                                                                                    
                                                                                                    
                                                                                                    
                                                                                                    
                                                                                                    
                                                                                                    
                                                                                                    
                                                                                                    
                                                                                                    
                                                                                                    
                                                                                                    
                                                                                                    
                                                                                                    
                                                                                                    
                                                                                                    
                                                                                                    
                                                                                                    
                           
<?xpacket end="w"?></metadata>
<defs>
    <style>
      .cls-1 {
        fill-rule: evenodd;
      }
    </style>
  </defs>
  <path id="Forma_1" data-name="Forma 1" class="cls-1" d="M216.506,927.853q0.469-.676.745-1.086,1.982-2.939,1.718-3.755l-0.069-.128a0.644,0.644,0,0,0-.355-0.212,1.628,1.628,0,0,0-.733-0.031l-3.3.025a0.838,0.838,0,0,0-.229.006,0.611,0.611,0,0,0-.149.038c-0.023.014-.042,0.024-0.057,0.032l-0.046.039a0.534,0.534,0,0,0-.126.134,0.9,0.9,0,0,0-.114.223,21.968,21.968,0,0,1-1.226,2.875c-0.282.527-.542,0.986-0.779,1.373a6.516,6.516,0,0,1-.595.857,4.433,4.433,0,0,1-.436.44,0.4,0.4,0,0,1-.3.141c-0.069-.017-0.134-0.034-0.195-0.052a0.815,0.815,0,0,1-.258-0.312,1.541,1.541,0,0,1-.131-0.5c-0.023-.2-0.037-0.373-0.04-0.517s0-.349,0-0.614,0.012-.442.012-0.536c0-.323.006-0.675,0.017-1.054s0.021-.68.029-0.9,0.011-.456.011-0.7a3.239,3.239,0,0,0-.04-0.58,2.242,2.242,0,0,0-.12-0.41,0.668,0.668,0,0,0-.235-0.3,1.251,1.251,0,0,0-.384-0.174,6.9,6.9,0,0,0-1.546-.165,6.774,6.774,0,0,0-2.738.307,1.562,1.562,0,0,0-.435.383q-0.207.281-.058,0.306a1.365,1.365,0,0,1,.974.55L205.4,923.7a2.763,2.763,0,0,1,.16.588,6.617,6.617,0,0,1,.1.933,11.122,11.122,0,0,1,0,1.6c-0.038.443-.074,0.787-0.108,1.035a2.248,2.248,0,0,1-.155.6,2.366,2.366,0,0,1-.138.281,0.216,0.216,0,0,1-.057.065,0.783,0.783,0,0,1-.309.063,0.687,0.687,0,0,1-.39-0.178,2.885,2.885,0,0,1-.475-0.492,6.662,6.662,0,0,1-.556-0.876q-0.309-.561-0.641-1.328l-0.183-.371q-0.172-.357-0.47-1.04t-0.527-1.322a0.843,0.843,0,0,0-.274-0.41l-0.058-.038a0.743,0.743,0,0,0-.183-0.108,1.152,1.152,0,0,0-.263-0.084l-3.139.026a0.749,0.749,0,0,0-.653.244l-0.046.075a0.46,0.46,0,0,0-.034.205,1.113,1.113,0,0,0,.069.345q0.687,1.8,1.494,3.473t1.4,2.7q0.6,1.023,1.214,1.929T202,932.77q0.2,0.257.315,0.383l0.286,0.308a7.031,7.031,0,0,0,.808.734,13.46,13.46,0,0,0,1.18.844,6.027,6.027,0,0,0,1.506.677,4.661,4.661,0,0,0,1.672.21h1.317a0.858,0.858,0,0,0,.607-0.281l0.046-.063a0.929,0.929,0,0,0,.086-0.236,1.436,1.436,0,0,0,.04-0.352,4.74,4.74,0,0,1,.075-0.99,2.791,2.791,0,0,1,.2-0.664,1.6,1.6,0,0,1,.246-0.377,1.015,1.015,0,0,1,.2-0.185c0.038-.021.068-0.036,0.091-0.046a0.678,0.678,0,0,1,.647.2,3.983,3.983,0,0,1,.7.741c0.218,0.295.479,0.624,0.785,0.99a5.586,5.586,0,0,0,.8.818l0.229,0.153a2.633,2.633,0,0,0,.595.28,1.161,1.161,0,0,0,.642.065l2.932-.052a1.211,1.211,0,0,0,.676-0.159,0.608,0.608,0,0,0,.286-0.351,1.082,1.082,0,0,0,.006-0.434,1.725,1.725,0,0,0-.08-0.339c-0.027-.063-0.052-0.117-0.075-0.159a12.507,12.507,0,0,0-2.187-2.824l-0.023-.024-0.012-.014-0.011-.013h-0.012a13.773,13.773,0,0,1-.927-1.047,1.072,1.072,0,0,1-.161-1.035A9.674,9.674,0,0,1,216.506,927.853Z" transform="translate(-197 -922)"/>
</svg>
