<svg xmlns="http://www.w3.org/2000/svg" width="112.5" height="85.5" viewBox="0 0 112.5 85.5">
  <metadata><?xpacket begin="﻿" id="W5M0MpCehiHzreSzNTczkc9d"?>
<x:xmpmeta xmlns:x="adobe:ns:meta/" x:xmptk="Adobe XMP Core 5.6-c138 79.159824, 2016/09/14-01:09:01        ">
   <rdf:RDF xmlns:rdf="http://www.w3.org/1999/02/22-rdf-syntax-ns#">
      <rdf:Description rdf:about=""/>
   </rdf:RDF>
</x:xmpmeta>
                                                                                                    
                                                                                                    
                                                                                                    
                                                                                                    
                                                                                                    
                                                                                                    
                                                                                                    
                                                                                                    
                                                                                                    
                                                                                                    
                                                                                                    
                                                                                                    
                                                                                                    
                                                                                                    
                                                                                                    
                                                                                                    
                                                                                                    
                                                                                                    
                                                                                                    
                                                                                                    
                           
<?xpacket end="w"?></metadata>
<defs>
    <style>
      .cls-1 {
        fill-rule: evenodd;
        opacity: 0.07;
      }
    </style>
  </defs>
  <path id="Forma_1" data-name="Forma 1" class="cls-1" d="M1644.62,6879.75a14.265,14.265,0,0,1-1.8,6.85l-35.53-40.27,35.14-31.15a14.26,14.26,0,0,1,2.19,7.57v57Zm-56.25-26.11,48.89-43.35a13.737,13.737,0,0,0-6.7-1.79h-84.38a13.67,13.67,0,0,0-6.69,1.79Zm13.63-2.62-11.32,10.04a3.472,3.472,0,0,1-4.62,0l-11.32-10.04-35.97,40.79a13.737,13.737,0,0,0,7.41,2.19h84.38a13.737,13.737,0,0,0,7.41-2.19Zm-67.69-35.84a14.26,14.26,0,0,0-2.19,7.57v57a14.161,14.161,0,0,0,1.81,6.85l35.51-40.28Z" transform="translate(-1532.13 -6808.5)"/>
</svg>
