<svg xmlns="http://www.w3.org/2000/svg" width="68" height="121" viewBox="0 0 68 121">
  <metadata><?xpacket begin="﻿" id="W5M0MpCehiHzreSzNTczkc9d"?>
<x:xmpmeta xmlns:x="adobe:ns:meta/" x:xmptk="Adobe XMP Core 5.6-c138 79.159824, 2016/09/14-01:09:01        ">
   <rdf:RDF xmlns:rdf="http://www.w3.org/1999/02/22-rdf-syntax-ns#">
      <rdf:Description rdf:about=""/>
   </rdf:RDF>
</x:xmpmeta>
                                                                                                    
                                                                                                    
                                                                                                    
                                                                                                    
                                                                                                    
                                                                                                    
                                                                                                    
                                                                                                    
                                                                                                    
                                                                                                    
                                                                                                    
                                                                                                    
                                                                                                    
                                                                                                    
                                                                                                    
                                                                                                    
                                                                                                    
                                                                                                    
                                                                                                    
                                                                                                    
                           
<?xpacket end="w"?></metadata>
<defs>
    <style>
      .cls-1 {
        fill-rule: evenodd;
        opacity: 0.07;
      }
    </style>
  </defs>
  <path id="Forma_1" data-name="Forma 1" class="cls-1" d="M1614.26,6530.99h-50.53a8.779,8.779,0,0,0-8.74,8.82V6643.2a8.777,8.777,0,0,0,8.74,8.81h50.53a8.777,8.777,0,0,0,8.74-8.81V6539.81A8.779,8.779,0,0,0,1614.26,6530.99Zm-37.73,5.35h24.95c0.63,0,1.13.95,1.13,2.12s-0.5,2.13-1.13,2.13h-24.95c-0.64,0-1.14-.95-1.14-2.13S1575.89,6536.34,1576.53,6536.34ZM1589,6643.31a5.625,5.625,0,1,1,5.57-5.63A5.612,5.612,0,0,1,1589,6643.31Zm27.45-19.27h-54.9v-78.17h54.9v78.17Z" transform="translate(-1555 -6531)"/>
</svg>
