<svg xmlns="http://www.w3.org/2000/svg" width="85.35" height="121.5" viewBox="0 0 85.35 121.5">
  <metadata><?xpacket begin="﻿" id="W5M0MpCehiHzreSzNTczkc9d"?>
<x:xmpmeta xmlns:x="adobe:ns:meta/" x:xmptk="Adobe XMP Core 5.6-c138 79.159824, 2016/09/14-01:09:01        ">
   <rdf:RDF xmlns:rdf="http://www.w3.org/1999/02/22-rdf-syntax-ns#">
      <rdf:Description rdf:about=""/>
   </rdf:RDF>
</x:xmpmeta>
                                                                                                    
                                                                                                    
                                                                                                    
                                                                                                    
                                                                                                    
                                                                                                    
                                                                                                    
                                                                                                    
                                                                                                    
                                                                                                    
                                                                                                    
                                                                                                    
                                                                                                    
                                                                                                    
                                                                                                    
                                                                                                    
                                                                                                    
                                                                                                    
                                                                                                    
                                                                                                    
                           
<?xpacket end="w"?></metadata>
<defs>
    <style>
      .cls-1 {
        fill-rule: evenodd;
        opacity: 0.07;
      }
    </style>
  </defs>
  <path id="Forma_1" data-name="Forma 1" class="cls-1" d="M1128.92,6560.24a37.576,37.576,0,0,0-2-4.86c-7.93-18.68-25.24-25.38-39.23-25.38-18.71,0-39.33,12.31-42.08,37.69v5.19c0,0.21.07,2.16,0.18,3.13,1.54,12.09,11.27,24.95,18.54,37.04,7.82,12.96,15.93,25.71,23.97,38.45,4.95-8.32,9.89-16.74,14.73-24.84,1.32-2.38,2.85-4.75,4.17-7.02,0.88-1.51,2.57-3.02,3.33-4.43,7.82-14.04,20.4-28.19,20.4-42.12v-5.72C1130.93,6565.86,1129.03,6560.57,1128.92,6560.24Zm-40.88,26.03c-5.51,0-11.53-2.7-14.5-10.15a14.033,14.033,0,0,1-.41-3.79v-3.34c0-9.51,8.23-13.83,15.38-13.83a15.445,15.445,0,0,1,15.62,15.56C1104.13,6579.36,1096.85,6586.27,1088.04,6586.27Z" transform="translate(-1045.59 -6530)"/>
</svg>
