<svg xmlns="http://www.w3.org/2000/svg" width="134.75" height="117" viewBox="0 0 134.75 117">
  <metadata><?xpacket begin="﻿" id="W5M0MpCehiHzreSzNTczkc9d"?>
<x:xmpmeta xmlns:x="adobe:ns:meta/" x:xmptk="Adobe XMP Core 5.6-c138 79.159824, 2016/09/14-01:09:01        ">
   <rdf:RDF xmlns:rdf="http://www.w3.org/1999/02/22-rdf-syntax-ns#">
      <rdf:Description rdf:about=""/>
   </rdf:RDF>
</x:xmpmeta>
                                                                                                    
                                                                                                    
                                                                                                    
                                                                                                    
                                                                                                    
                                                                                                    
                                                                                                    
                                                                                                    
                                                                                                    
                                                                                                    
                                                                                                    
                                                                                                    
                                                                                                    
                                                                                                    
                                                                                                    
                                                                                                    
                                                                                                    
                                                                                                    
                                                                                                    
                                                                                                    
                           
<?xpacket end="w"?></metadata>
<defs>
    <style>
      .cls-1 {
        fill-rule: evenodd;
        opacity: 0.07;
      }
    </style>
  </defs>
  <path id="Forma_1" data-name="Forma 1" class="cls-1" d="M1030.14,6866.37l-9.5-30.37h7.72l5.62,19.9,5.18-19.9h7.65l5.02,19.9,5.73-19.9h7.85l-9.66,30.37h-7.63l-5.19-19.54-5.07,19.54h-7.72Zm44.99,0-9.52-30.37h7.72l5.64,19.9,5.18-19.9h7.66l5.01,19.9,5.76-19.9h7.83l-9.66,30.37h-7.61l-5.2-19.54-5.08,19.54h-7.73Zm44.99,0L1110.6,6836h7.73l5.61,19.9,5.19-19.9h7.67l5.01,19.9,5.74-19.9h7.85l-9.66,30.37h-7.64l-5.18-19.54-5.08,19.54h-7.72ZM1088.01,6793a57.691,57.691,0,0,0-52.34,33.86h104.7A57.72,57.72,0,0,0,1088.01,6793Zm0,117a57.7,57.7,0,0,0,52.35-33.86H1035.68A57.66,57.66,0,0,0,1088.01,6910Z" transform="translate(-1020.66 -6793)"/>
</svg>
